# xmcd
#
# Track frame offsets:
#	150
#	12333
#	27040
#	51825
#	76993
#	94418
#	126320
#	151805
#	166403
#	186472
#	198249
#
# Disc length: 3163 seconds
#
# Revision: 2
# Processed by: cddbd v1.5.1PL0 Copyright (c) Steve Scherf et al.
# Submitted via: dBpowerAMP V4.0
#
DISCID=8a0c590b
DTITLE=Various Artist - Latin Sounds
DYEAR=2004
DGENRE=Latin
TTITLE0=Dave Pike - Sandunga
TTITLE1=Dave Pike - Aphrodite
TTITLE2=Boss Tres Bien - Quartet Tres Bien
TTITLE3=Herbie Man - Todos Locos
TTITLE4=Cal Tjader and Eddie Palmieri - Ritmo On I
TTITLE5=Cal Tjader and Eddie palmieri - Picadillo
TTITLE6=Willie Bobo - La Descarga Del Bobo
TTITLE7=Willie Bobo - Roots
TTITLE8=George Shearing - Caravan
TTITLE9=Patata and Totico - Mas Que Nada
TTITLE10=Willie Bobo - La Descarga Del Bobo(Maw Remix)
EXTD=
EXTT0=
EXTT1=
EXTT2=
EXTT3=
EXTT4=
EXTT5=
EXTT6=
EXTT7=
EXTT8=
EXTT9=
EXTT10=
PLAYORDER=
